HIERARCHY
ROOT hip
{
	OFFSET 0.000000 0.000000 0.000000 
	CHANNELS 6 Xposition Yposition Zposition Xrotation Zrotation Yrotation
	JOINT abdomen
	{
		OFFSET 0.000000 3.402643 0.000000 
		CHANNELS 3 Xrotation Zrotation Yrotation
		JOINT chest
		{
			OFFSET 0.000000 8.438565 -0.680529 
			CHANNELS 3 Xrotation Zrotation Yrotation
			JOINT neck
			{
				OFFSET 0.000000 10.207942 -0.272212 
				CHANNELS 3 Xrotation Zrotation Yrotation
				JOINT head
				{
					OFFSET 0.000000 3.130431 0.000000 
					CHANNELS 3 Xrotation Zrotation Yrotation
					End Site
					{
						OFFSET 0.000000 3.130435 0.000000 
					}
				}
			}
			JOINT lCollar
			{
				OFFSET 3.470700 6.669187 -0.816635 
				CHANNELS 3 Yrotation Zrotation Xrotation
				JOINT lShldr
				{
					OFFSET 3.198488 0.000000 0.000000 
					CHANNELS 3 Zrotation Yrotation Xrotation
					JOINT lForeArm
					{
						OFFSET 10.139888 0.000000 0.000000 
						CHANNELS 3 Yrotation Zrotation Xrotation
						JOINT lHand
						{
							OFFSET 8.370511 0.000000 0.000000 
							CHANNELS 3 Zrotation Yrotation Xrotation
							End Site
							{
								OFFSET 4.083176 0.000000 0.000000 
							}
						}
					}
				}
			}
			JOINT rCollar
			{
				OFFSET -3.470700 6.669187 -0.816635 
				CHANNELS 3 Yrotation Zrotation Xrotation
				JOINT rShldr
				{
					OFFSET -3.198488 0.000000 0.000000 
					CHANNELS 3 Zrotation Yrotation Xrotation
					JOINT rForeArm
					{
						OFFSET -10.139888 0.000000 0.000000 
						CHANNELS 3 Yrotation Zrotation Xrotation
						JOINT rHand
						{
							OFFSET -8.370511 0.000000 0.000000 
							CHANNELS 3 Zrotation Yrotation Xrotation
							End Site
							{
								OFFSET -4.083176 0.000000 0.000000 
							}
						}
					}
				}
			}
		}
	}
	JOINT lThigh
	{
		OFFSET 5.308129 -1.633274 1.361059 
		CHANNELS 3 Xrotation Zrotation Yrotation
		JOINT lShin
		{
			OFFSET -2.041588 -20.007561 0.000000 
			CHANNELS 3 Xrotation Zrotation Yrotation
			JOINT lFoot
			{
				OFFSET 0.000000 -19.190928 -1.224953 
				CHANNELS 3 Xrotation Yrotation Zrotation
				End Site
				{
					OFFSET 0.000000 -2.449906 4.627600 
				}
			}
		}
	}
	JOINT rThigh
	{
		OFFSET -5.308129 -1.633274 1.361059 
		CHANNELS 3 Xrotation Zrotation Yrotation
		JOINT rShin
		{
			OFFSET 2.041588 -20.007561 0.000000 
			CHANNELS 3 Xrotation Zrotation Yrotation
			JOINT rFoot
			{
				OFFSET 0.000000 -19.190928 -1.224953 
				CHANNELS 3 Xrotation Yrotation Zrotation
				End Site
				{
					OFFSET 0.000000 -2.449906 4.627600 
				}
			}
		}
	}
}
MOTION
Frames: 15
Frame Time: 0.033333
-45.877708 52.913857 -56.002003 0.020256 0.020256 33.910084 0.020256 0.020256 0.020256 8.321175 5.595150 2.028806 0.020256 0.020256 0.020256 13.985443 0.020256 23.717575 0.020256 0.020256 0.020256 0.020256 5.621153 0.020256 0.020256 0.020256 0.020256 39.861580 0.020256 2.848956 2.957607 0.090307 0.020256 76.237152 11.249078 10.736518 66.251823 26.216291 0.020256 0.020256 16.208948 7.537551 0.020256 18.504078 17.022106 9.906322 0.020256 0.020256 0.070968 0.020256 0.020256 6.276614 0.020256 0.020256 9.367969 1.215462 5.292226 0.020256 6.019307 11.300808 
-45.875664 52.921791 -56.003021 -0.156287 -1.249995 33.929192 0.000000 0.000000 0.000000 8.212840 5.567676 2.081573 -8.603516 0.000000 0.000000 14.053658 -4.958065 23.647877 -2.957607 -0.090307 -0.002318 -79.136398 5.944363 -9.642449 -74.814079 -43.203667 -9.476805 39.275867 -15.019881 3.260337 2.957607 0.090307 -0.002334 76.188652 10.844888 10.294637 66.477760 26.434431 -2.819652 -49.784172 17.047134 7.642642 -5.283152 18.430050 16.757677 9.858180 -0.236468 -1.836005 0.157444 -0.660621 -19.989212 6.225892 -17.925060 -27.857176 9.304842 1.245117 5.310454 -9.758793 5.646124 11.242413 
-45.877708 52.923828 -56.003704 -0.126984 -1.259763 33.938339 0.000000 0.000000 0.000000 8.104650 5.549833 2.136768 -8.603516 0.000000 0.000000 14.063059 -4.909378 23.573547 -2.957607 -0.090307 -0.002318 -79.319397 6.158566 -9.959566 -74.813148 -43.317371 -9.454604 38.856144 -15.486665 3.567382 2.957607 0.090307 -0.002334 76.157829 10.598400 10.025867 66.583252 26.576176 -2.896469 -49.504574 17.512167 7.665825 -5.361328 18.372057 16.561073 9.837763 -0.226844 -1.863813 0.204854 -0.483703 -19.973223 6.168007 -17.935358 -27.634289 9.281988 1.274344 5.301438 -9.719990 5.450708 11.231708 
-45.879070 52.928020 -56.004150 -0.097680 -1.269529 33.957241 0.000000 0.000000 0.000000 8.035710 5.531432 2.186032 -8.603516 0.000000 0.000000 14.072621 -4.880135 23.497372 -2.957607 -0.090307 -0.002318 -79.458298 6.316850 -10.157872 -74.798073 -43.365253 -9.443045 38.778076 -15.493255 3.792842 2.957607 0.090307 -0.002334 76.119873 10.439806 9.891787 66.538963 26.684177 -2.816455 -49.250484 17.308329 7.553534 -5.390312 18.311720 16.448069 9.809055 -0.215383 -1.852138 0.221467 -0.392337 -19.969906 6.141299 -17.958038 -27.544838 9.280468 1.284086 5.311739 -9.713707 5.335868 11.208333 
-45.882011 52.936630 -56.006985 -0.039072 -1.269531 33.995007 0.000000 0.000000 0.000000 7.917467 5.494325 2.257268 -8.603516 0.000000 0.000000 14.131027 -4.831054 23.389660 -2.957607 -0.090307 -0.002318 -79.673325 6.598047 -10.426871 -74.707222 -43.487534 -9.406241 38.562469 -15.609481 4.075916 2.957607 0.090307 -0.002334 76.001472 10.150010 9.731370 66.536354 26.840105 -2.776189 -49.115383 17.329653 7.396775 -5.458795 18.227955 16.330992 9.738686 -0.186009 -1.915684 0.281735 -0.246090 -19.933105 6.129743 -17.956476 -27.345572 9.190737 1.293712 5.307989 -9.640198 5.097091 11.163999 
-45.884850 52.933685 -56.009823 -0.009768 -1.259766 34.023651 0.000000 0.000000 0.000000 7.799494 5.476522 2.341063 -8.603516 0.000000 0.000000 14.169749 -4.772418 23.256140 -2.957607 -0.090307 -0.002318 -79.895096 6.849962 -10.608028 -74.601952 -43.594524 -9.333183 38.493301 -15.497677 4.215919 2.957607 0.090307 -0.002334 75.870186 9.840383 9.795571 66.613930 26.786217 -2.877721 -49.045269 17.208174 7.350625 -5.458773 18.168074 16.418127 9.647944 -0.186190 -1.990135 0.337790 -0.281743 -19.911280 6.188109 -17.936306 -27.309427 9.080459 1.294075 5.361059 -9.623716 4.955585 11.148726 
-45.887680 52.936630 -56.009823 0.048840 -1.259765 34.061214 0.000000 0.000000 0.000000 7.730575 5.458058 2.439343 -8.603516 0.000000 0.000000 14.296738 -4.722789 23.074623 -2.957607 -0.090307 -0.002318 -80.093140 7.064562 -10.660761 -74.540916 -43.642395 -9.335188 38.425911 -15.405332 4.316849 2.957607 0.090307 -0.002334 75.728996 9.549740 9.809319 66.662323 26.785978 -2.898777 -49.019855 16.935816 7.290849 -5.478487 18.121180 16.513687 9.578540 -0.186156 -2.016658 0.359274 -0.360363 -19.876085 6.264757 -17.944141 -27.507160 8.946344 1.283884 5.578384 -9.585891 4.855210 11.140621 
-45.890507 52.936630 -56.012657 0.087911 -1.240233 34.109219 0.000000 0.000000 0.000000 7.730200 5.429028 2.533075 -8.603516 0.000000 0.000000 14.354968 -4.654290 22.920378 -2.957607 -0.090307 -0.002318 -80.234917 7.174971 -10.605154 -74.367691 -43.697159 -9.172612 38.760777 -14.759500 4.227581 2.957607 0.090307 -0.002334 75.563011 9.483068 10.006744 66.536545 26.695971 -2.833856 -49.276367 16.217846 7.125926 -5.410131 18.078798 16.765495 9.520098 -0.178154 -2.013830 0.342124 -0.632502 -19.872364 6.393801 -17.937107 -27.856447 8.855689 1.274413 5.670877 -9.634646 5.011652 11.144006 
-45.896290 52.945129 -56.012657 0.156285 -1.220699 34.195686 0.000000 0.000000 0.000000 7.631619 5.391558 2.528432 -8.603516 0.000000 0.000000 14.511241 -4.594713 22.786760 -2.957607 -0.090307 -0.002318 -80.265228 7.252491 -10.430027 -74.220528 -43.686493 -9.048705 38.893082 -14.591485 4.025878 2.957607 0.090307 -0.002334 75.533264 9.423244 10.202486 66.671669 26.557636 -2.990462 -49.228207 15.908226 7.378050 -5.439161 18.000162 16.731037 9.473497 -0.176465 -1.953360 0.348339 -0.717090 -19.871717 6.364089 -17.965853 -27.837475 8.888868 1.274038 5.565255 -9.670995 5.021941 11.130570 
-45.896290 52.947964 -56.006985 0.205122 -1.181633 34.292446 0.000000 0.000000 0.000000 7.522651 5.305767 2.467809 -8.603516 0.000000 0.000000 14.735819 -4.505429 22.690237 -2.957607 -0.090307 -0.002318 -80.142723 7.406266 -10.244062 -74.172958 -43.589703 -9.029407 38.953598 -14.390319 3.834624 2.957607 0.090307 -0.002334 75.562119 9.376078 10.358431 66.786697 26.468964 -3.125244 -49.089989 15.576875 7.688272 -5.439413 17.895346 16.639950 9.388678 -0.168154 -1.871413 0.389058 -0.802904 -19.848310 6.363454 -17.993885 -27.871067 8.929520 1.274111 5.528189 -9.729205 4.926888 11.133176 
-45.893345 52.950794 -55.998489 0.253958 -1.152333 34.389229 0.000000 0.000000 0.000000 7.384199 5.210575 2.423120 -8.603516 0.000000 0.000000 14.979861 -4.406275 22.603752 -2.957607 -0.090307 -0.002318 -79.951012 7.534031 -10.096374 -74.113846 -43.552532 -9.004762 38.765484 -14.484627 3.609686 2.957607 0.090307 -0.002334 75.622581 9.301081 10.465246 67.017822 26.358507 -3.395378 -49.007126 15.740799 8.102575 -5.449231 17.805250 16.574583 9.310866 -0.174687 -1.858997 0.425971 -0.826360 -19.822987 6.380622 -18.021057 -27.867172 8.949259 1.283922 5.490700 -9.765532 4.841357 11.137697 
-45.890507 52.956459 -55.987049 0.302793 -1.123031 34.486061 0.000000 0.000000 0.000000 7.245919 5.124980 2.369478 -8.603516 0.000000 0.000000 15.214150 -4.316920 22.527483 -2.957607 -0.090307 -0.002318 -79.718185 7.624758 -9.949403 -74.093719 -43.485733 -9.041237 38.595882 -14.675389 3.499384 2.957607 0.090307 -0.002334 75.745262 9.189916 10.475339 67.305000 26.318312 -3.650420 -48.753445 15.644784 8.543820 -5.498140 17.721498 16.410507 9.262335 -0.155277 -1.855870 0.486467 -0.764057 -19.837456 6.374090 -18.053833 -27.721663 8.998881 1.303578 5.406470 -9.801399 4.661169 11.119449 
-45.884850 52.965069 -55.972881 0.341860 -1.103496 34.592834 0.000000 0.000000 0.000000 7.088087 5.039516 2.266588 -8.603516 0.000000 0.000000 15.448314 -4.217879 22.501921 -2.957607 -0.090307 -0.002318 -79.457253 7.716587 -9.869166 -74.118301 -43.359291 -9.133162 38.438881 -14.678831 3.637866 2.957607 0.090307 -0.002334 75.864487 9.117837 10.561919 67.471603 26.311604 -3.857628 -48.596832 15.432655 8.753685 -5.429430 17.669827 16.339708 9.083309 -0.186083 -1.928771 0.526067 -0.705428 -19.834324 6.433322 -18.055099 -27.658695 8.964259 1.342404 5.406913 -9.803548 4.437095 11.098404 
-45.879181 52.965069 -55.958603 0.361393 -1.083963 34.690247 0.000000 0.000000 0.000000 6.920611 4.963753 2.164495 -8.603516 0.000000 0.000000 15.584791 -4.148808 22.490389 -2.957607 -0.090307 -0.002318 -79.195282 7.759161 -9.876527 -74.097130 -43.312988 -9.165768 38.366192 -14.635950 3.758312 2.957607 0.090307 -0.002334 76.030556 9.038585 10.774878 67.537781 26.290155 -4.033535 -48.525139 15.291711 8.866089 -5.341786 17.632513 16.288084 8.946277 -0.187672 -1.933202 0.559129 -0.723693 -19.848858 6.499814 -18.013868 -27.601023 8.911974 1.362180 5.415373 -9.821058 4.243741 11.072155 
-45.873402 52.973568 -55.944447 0.380929 -1.093726 34.777699 0.000000 0.000000 0.000000 6.753386 4.907289 2.074899 -8.603516 0.000000 0.000000 15.750886 -4.108560 22.444164 -2.957607 -0.090307 -0.002318 -78.929749 7.753282 -9.825025 -74.058136 -43.260979 -9.171607 38.344048 -14.608407 3.797604 2.957607 0.090307 -0.002334 76.185783 8.997822 10.939086 67.625458 26.285791 -4.223214 -48.455238 15.170224 8.985653 -5.283609 17.636604 16.231901 8.818657 -0.165115 -1.956112 0.590495 -0.712290 -19.915136 6.557029 -17.963696 -27.550901 8.862022 1.371858 5.393983 -9.827971 4.079938 11.048411 
